# xmcd CD database file
#
# Track frame offsets:
#	150
#	20931
#	39674
#	67050
#	79977
#	108284
#	144256
#	169637
#	188795
#	216027
#	225853
#	246927
#	272920
#
# Disc length: 3766 seconds
#
# Revision: 0
# Processed by: cddbd v1.5.2PL0 Copyright (c) Steve Scherf et al.
# Submitted via: CDex 1.70beta2
#
DISCID=b50eb40d
DTITLE=Sigi Finkel and Mamandou Diabaté - Yala - The journey
DYEAR=2010
DGENRE=Jazz
TTITLE0=Kaba Kode
TTITLE1=Yala
TTITLE2=Sama
TTITLE3=Très Spécial
TTITLE4=Dunia
TTITLE5=Habibi
TTITLE6=Mama
TTITLE7=Faso Denou Be
TTITLE8=Solo
TTITLE9=Sansula
TTITLE10=Tgoba So
TTITLE11=Kamel
TTITLE12=Koreti
EXTD=YEAR: 2010
EXTT0=
EXTT1=
EXTT2=
EXTT3=
EXTT4=
EXTT5=
EXTT6=
EXTT7=
EXTT8=
EXTT9=
EXTT10=
EXTT11=
EXTT12=
PLAYORDER=
